<?xml version="1.0" encoding="UTF-8"?>
<svg width="413px" height="436px" viewBox="0 0 413 436" version="1.1" xmlns="http://www.w3.org/2000/svg" xmlns:xlink="http://www.w3.org/1999/xlink">
    <!-- Generator: Sketch 42 (36781) - http://www.bohemiancoding.com/sketch -->
    <title>Main Logo</title>
    <desc>Created with Sketch.</desc>
    <defs></defs>
    <g id="Logo-and-Colors" stroke="none" stroke-width="1" fill="none" fill-rule="evenodd">
        <g id="Main-Logo" fill="#FFF">
            <g id="43526" transform="translate(13.000000, 10.000000)">
                <path d="M219.624,31.715 C212.523,19.492 217.945,2.275 217.945,2.275 C217.945,2.275 234.879,4.877 241.979,17.101 C249.08,29.323 243.659,46.54 243.659,46.54 C243.659,46.54 226.725,43.938 219.624,31.715" id="Fill-10"></path>
                <path d="M172.098,29.835 C169.452,17.3 178.771,4.417 178.771,4.417 C178.771,4.417 192.378,11.856 195.023,24.392 C197.668,36.926 188.35,49.81 188.35,49.81 C188.35,49.81 174.742,42.37 172.098,29.835" id="Fill-11"></path>
                <path d="M312.892,91.898 C302.655,105.76 281.681,106.463 281.681,106.463 C281.681,106.463 277.303,84.692 287.539,70.83 C297.774,56.968 318.749,56.265 318.749,56.265 C318.749,56.265 323.128,78.036 312.892,91.898" id="Fill-12"></path>
                <path d="M268.786,162.966 C260.49,147.714 267.714,126.813 267.714,126.813 C267.714,126.813 288.387,130.64 296.682,145.893 C304.977,161.145 297.754,182.045 297.754,182.045 C297.754,182.045 277.081,178.218 268.786,162.966" id="Fill-13"></path>
                <path d="M329.222,156.854 C332.146,142.836 347.337,134.481 347.337,134.481 C347.337,134.481 357.785,148.855 354.861,162.874 C351.937,176.893 336.746,185.247 336.746,185.247 C336.746,185.247 326.297,170.873 329.222,156.854" id="Fill-14"></path>
                <path d="M239.691,191.205 C227.095,182.579 224.771,162.622 224.771,162.622 C224.771,162.622 242.871,156.651 255.469,165.277 C268.065,173.903 270.39,193.859 270.39,193.859 C270.39,193.859 252.289,199.831 239.691,191.205" id="Fill-15"></path>
                <path d="M309.797,208.301 C300.042,213.492 287.386,207.662 287.386,207.662 C287.386,207.662 290.546,193.414 300.301,188.223 C310.057,183.03 322.713,188.861 322.713,188.861 C322.713,188.861 319.552,203.109 309.797,208.301" id="Fill-16"></path>
                <path d="M352.873,250.968 C343.409,245.201 341.01,230.787 341.01,230.787 C341.01,230.787 353.955,225.722 363.419,231.488 C372.884,237.254 375.283,251.668 375.283,251.668 C375.283,251.668 362.338,256.733 352.873,250.968" id="Fill-17"></path>
                <path d="M357.06,287.389 C345.778,291.58 332.8,283.37 332.8,283.37 C332.8,283.37 338.111,268.362 349.392,264.17 C360.673,259.978 373.651,268.188 373.651,268.188 C373.651,268.188 368.34,283.196 357.06,287.389" id="Fill-18"></path>
                <path d="M254.684,239.457 C252.544,228.104 261.19,216.697 261.19,216.697 C261.19,216.697 273.308,223.698 275.448,235.051 C277.589,246.404 268.941,257.811 268.941,257.811 C268.941,257.811 256.824,250.81 254.684,239.457" id="Fill-19"></path>
                <path d="M265.648,33.917 C277.041,28.006 291.682,34.938 291.682,34.938 C291.682,34.938 287.853,51.453 276.46,57.364 C265.068,63.275 250.427,56.344 250.427,56.344 C250.427,56.344 254.256,39.828 265.648,33.917" id="Fill-20"></path>
                <path d="M368.883,187.336 C379.157,191.24 383.916,204.979 383.916,204.979 C383.916,204.979 372.017,212.389 361.741,208.484 C351.467,204.58 346.708,190.841 346.708,190.841 C346.708,190.841 358.607,183.432 368.883,187.336" id="Fill-21"></path>
                <path d="M157.224,164.975 C165.44,153.564 182.535,152.771 182.535,152.771 C182.535,152.771 186.308,170.476 178.092,181.885 C169.875,193.295 152.781,194.089 152.781,194.089 C152.781,194.089 149.008,176.384 157.224,164.975" id="Fill-22"></path>
                <path d="M143.449,266.301 C155.362,264.006 167.12,274.405 167.12,274.405 C167.12,274.405 159.562,288.526 147.647,290.822 C135.734,293.117 123.977,282.718 123.977,282.718 C123.977,282.718 131.535,268.597 143.449,266.301" id="Fill-23"></path>
                <path d="M179.119,298.155 C188.051,289.482 203.223,291.644 203.223,291.644 C203.223,291.644 203.914,307.865 194.982,316.539 C186.051,325.212 170.879,323.051 170.879,323.051 C170.879,323.051 170.188,306.828 179.119,298.155" id="Fill-24"></path>
                <path d="M235.14,271.021 C235.235,258.177 247.06,247.863 247.06,247.863 C247.06,247.863 258.728,258.375 258.632,271.219 C258.535,284.063 246.712,294.378 246.712,294.378 C246.712,294.378 235.043,283.866 235.14,271.021" id="Fill-25"></path>
                <path d="M189.288,239.522 C197.573,234.518 208.865,238.986 208.865,238.986 C208.865,238.986 206.726,251.568 198.441,256.573 C190.157,261.578 178.865,257.109 178.865,257.109 C178.865,257.109 181.004,244.527 189.288,239.522" id="Fill-26"></path>
                <path d="M235.813,140.899 C226.18,136.008 222.844,122.129 222.844,122.129 C222.844,122.129 235.126,116.181 244.76,121.072 C254.394,125.964 257.729,139.843 257.729,139.843 C257.729,139.843 245.447,145.791 235.813,140.899" id="Fill-27"></path>
                <path d="M348.543,130.335 C339.153,125.567 335.901,112.04 335.901,112.04 C335.901,112.04 347.873,106.242 357.263,111.01 C366.652,115.777 369.904,129.305 369.904,129.305 C369.904,129.305 357.933,135.103 348.543,130.335" id="Fill-28"></path>
                <path d="M338.587,313.513 C336.824,304.854 343.313,296.019 343.313,296.019 C343.313,296.019 352.662,301.224 354.426,309.884 C356.188,318.543 349.699,327.378 349.699,327.378 C349.699,327.378 340.351,322.173 338.587,313.513" id="Fill-29"></path>
                <path d="M218.581,330.29 C222.23,318.041 236.39,311.869 236.39,311.869 C236.39,311.869 244.632,325.554 240.981,337.801 C237.332,350.049 223.173,356.222 223.173,356.222 C223.173,356.222 214.932,342.537 218.581,330.29" id="Fill-30"></path>
                <path d="M306.082,322.313 C302.097,309.122 310.928,294.327 310.928,294.327 C310.928,294.327 326.222,300.918 330.208,314.109 C334.193,327.3 325.361,342.095 325.361,342.095 C325.361,342.095 310.068,335.503 306.082,322.313" id="Fill-31"></path>
                <path d="M288.868,344.971 C300.502,341.408 313.19,350.492 313.19,350.492 C313.19,350.492 307.018,365.352 295.385,368.915 C283.751,372.478 271.063,363.394 271.063,363.394 C271.063,363.394 277.234,348.534 288.868,344.971" id="Fill-32"></path>
                <path d="M255.64,365.477 C270.249,371.875 276.24,392.095 276.24,392.095 C276.24,392.095 258.548,401.943 243.938,395.544 C229.33,389.147 223.338,368.927 223.338,368.927 C223.338,368.927 241.031,359.08 255.64,365.477" id="Fill-33"></path>
                <path d="M163.029,341.318 C174.987,339.3 186.526,349.971 186.526,349.971 C186.526,349.971 178.678,363.914 166.72,365.931 C154.761,367.949 143.222,357.278 143.222,357.278 C143.222,357.278 151.071,343.336 163.029,341.318" id="Fill-34"></path>
                <path d="M213.903,385.148 C216.548,397.683 207.229,410.566 207.229,410.566 C207.229,410.566 193.622,403.126 190.978,390.591 C188.333,378.057 197.651,365.173 197.651,365.173 C197.651,365.173 211.259,372.613 213.903,385.148" id="Fill-35"></path>
                <path d="M266.775,319.039 C278.409,315.477 291.098,324.56 291.098,324.56 C291.098,324.56 284.925,339.42 273.292,342.984 C261.658,346.546 248.97,337.462 248.97,337.462 C248.97,337.462 255.142,322.602 266.775,319.039" id="Fill-36"></path>
                <path d="M298.65,261.338 C290.354,246.086 297.578,225.185 297.578,225.185 C297.578,225.185 318.25,229.013 326.546,244.265 C334.841,259.517 327.618,280.418 327.618,280.418 C327.618,280.418 306.945,276.59 298.65,261.338" id="Fill-37"></path>
                <path d="M86.078,309.753 C100.867,309.303 113.267,324.158 113.267,324.158 C113.267,324.158 101.689,339.741 86.901,340.191 C72.112,340.641 59.712,325.787 59.712,325.787 C59.712,325.787 71.289,310.202 86.078,309.753" id="Fill-38"></path>
                <path d="M37.384,303.537 C45.314,294.627 59.892,295.565 59.892,295.565 C59.892,295.565 61.61,310.949 53.68,319.859 C45.749,328.77 31.172,327.832 31.172,327.832 C31.172,327.832 29.453,312.446 37.384,303.537" id="Fill-39"></path>
                <path d="M107.618,259.503 C115.913,274.755 108.69,295.656 108.69,295.656 C108.69,295.656 88.018,291.829 79.723,276.576 C71.427,261.324 78.65,240.424 78.65,240.424 C78.65,240.424 99.322,244.251 107.618,259.503" id="Fill-40"></path>
                <path d="M56.779,258.128 C53.854,272.146 38.664,280.501 38.664,280.501 C38.664,280.501 28.215,266.127 31.14,252.108 C34.063,238.09 49.254,229.735 49.254,229.735 C49.254,229.735 59.703,244.109 56.779,258.128" id="Fill-41"></path>
                <path d="M146.309,223.777 C158.906,232.403 161.229,252.36 161.229,252.36 C161.229,252.36 143.13,258.331 130.532,249.705 C117.935,241.079 115.611,221.123 115.611,221.123 C115.611,221.123 133.712,215.151 146.309,223.777" id="Fill-42"></path>
                <path d="M76.204,206.682 C85.959,201.49 98.615,207.32 98.615,207.32 C98.615,207.32 95.455,221.568 85.699,226.76 C75.944,231.952 63.288,226.121 63.288,226.121 C63.288,226.121 66.448,211.873 76.204,206.682" id="Fill-43"></path>
                <path d="M33.127,164.015 C42.592,169.781 44.991,184.195 44.991,184.195 C44.991,184.195 32.046,189.261 22.581,183.494 C13.117,177.729 10.718,163.314 10.718,163.314 C10.718,163.314 23.663,158.249 33.127,164.015" id="Fill-44"></path>
                <path d="M131.316,175.525 C133.457,186.879 124.81,198.285 124.81,198.285 C124.81,198.285 112.692,191.284 110.552,179.931 C108.412,168.578 117.059,157.172 117.059,157.172 C117.059,157.172 129.176,164.173 131.316,175.525" id="Fill-45"></path>
                <path d="M120.352,381.066 C108.96,386.977 94.318,380.045 94.318,380.045 C94.318,380.045 98.148,363.53 109.54,357.619 C120.933,351.708 135.573,358.639 135.573,358.639 C135.573,358.639 131.744,375.155 120.352,381.066" id="Fill-46"></path>
                <path d="M75.849,362.106 C67.392,362.365 60.258,352.351 60.258,352.351 C60.258,352.351 66.834,341.917 75.291,341.658 C83.747,341.398 90.882,351.412 90.882,351.412 C90.882,351.412 84.305,361.846 75.849,362.106" id="Fill-47"></path>
                <path d="M17.118,227.646 C6.843,223.741 2.084,210.003 2.084,210.003 C2.084,210.003 13.984,202.594 24.259,206.498 C34.534,210.402 39.293,224.142 39.293,224.142 C39.293,224.142 27.393,231.551 17.118,227.646" id="Fill-48"></path>
                <path d="M192.798,229.461 C179.271,229.956 167.853,216.438 167.853,216.438 C167.853,216.438 178.365,202.115 191.892,201.62 C205.419,201.125 216.837,214.645 216.837,214.645 C216.837,214.645 206.324,228.966 192.798,229.461" id="Fill-49"></path>
                <path d="M180.69,128.286 C169.095,125.871 161.904,111.98 161.904,111.98 C161.904,111.98 173.512,102.006 185.107,104.421 C196.702,106.836 203.894,120.727 203.894,120.727 C203.894,120.727 192.285,130.701 180.69,128.286" id="Fill-50"></path>
                <path d="M166.376,383.268 C173.478,395.491 168.056,412.707 168.056,412.707 C168.056,412.707 151.121,410.106 144.021,397.882 C136.92,385.66 142.342,368.443 142.342,368.443 C142.342,368.443 159.275,371.044 166.376,383.268" id="Fill-51"></path>
                <path d="M161.173,149.582 C154.843,160.531 139.697,162.894 139.697,162.894 C139.697,162.894 134.815,147.502 141.146,136.553 C147.477,125.603 162.622,123.241 162.622,123.241 C162.622,123.241 167.503,138.632 161.173,149.582" id="Fill-52"></path>
                <path d="M167.419,84.693 C163.77,96.941 149.61,103.113 149.61,103.113 C149.61,103.113 141.369,89.429 145.019,77.182 C148.669,64.934 162.828,58.761 162.828,58.761 C162.828,58.761 171.069,72.445 167.419,84.693" id="Fill-53"></path>
                <path d="M33.574,150.786 C24.284,156.091 11.896,150.822 11.896,150.822 C11.896,150.822 14.571,136.952 23.862,131.646 C33.152,126.342 45.539,131.61 45.539,131.61 C45.539,131.61 42.864,145.481 33.574,150.786" id="Fill-54"></path>
                <path d="M198.938,190.697 C191.455,186.809 188.947,175.949 188.947,175.949 C188.947,175.949 198.572,171.393 206.056,175.281 C213.538,179.169 216.046,190.028 216.046,190.028 C216.046,190.028 206.421,194.585 198.938,190.697" id="Fill-55"></path>
                <path d="M103.345,56.358 C103.026,69.199 91.026,79.281 91.026,79.281 C91.026,79.281 79.542,68.544 79.859,55.704 C80.178,42.863 92.179,32.781 92.179,32.781 C92.179,32.781 103.663,43.518 103.345,56.358" id="Fill-56"></path>
                <path d="M64.806,85.068 C76.427,93.814 77.85,112.865 77.85,112.865 C77.85,112.865 60.43,117.734 48.809,108.988 C37.187,100.241 35.764,81.191 35.764,81.191 C35.764,81.191 53.184,76.322 64.806,85.068" id="Fill-57"></path>
                <path d="M151.187,45.555 C145.549,56.922 130.582,60.335 130.582,60.335 C130.582,60.335 124.758,45.317 130.396,33.95 C136.034,22.582 151,19.169 151,19.169 C151,19.169 156.825,34.187 151.187,45.555" id="Fill-58"></path>
                <path d="M222.972,73.664 C211.013,75.683 199.474,65.012 199.474,65.012 C199.474,65.012 207.323,51.069 219.281,49.052 C231.239,47.034 242.778,57.705 242.778,57.705 C242.778,57.705 234.93,71.646 222.972,73.664" id="Fill-59"></path>
                <path d="M119.226,95.943 C107.592,99.506 94.902,90.423 94.902,90.423 C94.902,90.423 101.075,75.563 112.709,71.999 C124.342,68.437 137.031,77.521 137.031,77.521 C137.031,77.521 130.858,92.38 119.226,95.943" id="Fill-60"></path>
                <path d="M87.351,153.645 C95.646,168.896 88.423,189.798 88.423,189.798 C88.423,189.798 67.75,185.97 59.455,170.718 C51.159,155.466 58.383,134.564 58.383,134.564 C58.383,134.564 79.056,138.393 87.351,153.645" id="Fill-61"></path>
                <path d="M385.531,218.244 C385.412,217.66 385.294,217.076 385.175,216.492 C385.033,215.795 384.387,215.263 383.697,215.415 C333.922,226.428 279.507,222.967 232.524,201.567 C231.869,201.269 231.159,201.723 230.895,202.36 C230.733,202.751 230.572,203.143 230.41,203.533 C220.08,178.221 214.071,151.13 214.326,123.292 C214.332,122.604 213.9,121.85 213.172,121.837 C212.551,121.825 211.929,121.814 211.307,121.803 C210.662,121.791 209.941,122.259 209.935,123.026 C209.347,186.267 240.133,245.804 281.125,289.901 C281.208,289.991 281.297,290.061 281.388,290.12 C281.802,290.504 282.401,290.604 282.911,290.064 C283.352,289.599 283.792,289.133 284.232,288.667 C284.688,288.187 284.899,287.324 284.387,286.772 C262.839,263.591 244.076,236.052 231.402,205.925 C254.829,216.51 279.726,222.274 305.031,224.749 C331.66,227.026 358.342,225.59 384.515,219.812 C385.171,219.666 385.679,218.969 385.531,218.244" id="Fill-62"></path>
                <path d="M320.167,216.606 C319.853,217.231 320.036,218.097 320.655,218.437 C321.155,218.711 321.655,218.985 322.156,219.26 C322.374,219.379 322.585,219.42 322.784,219.414 C323.201,219.442 323.623,219.255 323.881,218.741 C336.392,193.851 356.855,175.094 381.919,165.646 C382.544,165.411 383.005,164.692 382.774,163.975 C382.592,163.409 382.41,162.844 382.229,162.278 C382.016,161.618 381.319,161.12 380.652,161.371 C354.572,171.2 333.191,190.69 320.167,216.606" id="Fill-63"></path>
                <path d="M246.225,94.129 C246.352,94.152 246.484,94.163 246.63,94.144 C247.188,94.069 247.747,93.995 248.307,93.921 C249.019,93.827 249.396,93.041 249.322,92.354 C246.383,65.077 250.372,37.859 260.898,12.784 C261.192,12.085 260.74,11.343 260.15,11.056 C259.639,10.806 259.127,10.557 258.614,10.307 C257.964,9.989 257.246,10.478 256.984,11.1 C246.144,36.926 242.125,64.983 245.152,93.065 C245.229,93.78 245.707,94.108 246.225,94.129" id="Fill-64"></path>
                <path d="M364.141,291.478 C303.182,287.494 237.243,288.369 186.355,329.217 C185.793,329.668 185.8,330.56 186.201,331.112 C186.58,331.633 186.96,332.156 187.339,332.678 C187.733,333.22 188.272,333.274 188.721,333.061 C188.856,333.015 188.992,332.948 189.125,332.841 C216.706,310.717 248.853,300.646 282.176,296.716 C290.268,323.07 305.688,343.386 328.443,357.279 C328.545,357.341 328.646,357.383 328.747,357.415 C329.242,357.689 329.853,357.631 330.21,356.957 C330.486,356.436 330.763,355.916 331.038,355.395 C331.35,354.808 331.375,353.912 330.734,353.52 C309.151,340.332 294.268,321.191 286.453,296.244 C312.142,293.618 338.438,294.474 363.807,296.132 C364.479,296.176 365.135,295.649 365.179,294.908 C365.217,294.25 365.256,293.592 365.295,292.933 C365.337,292.221 364.84,291.523 364.141,291.478" id="Fill-65"></path>
                <path d="M231.561,405.74 L231.563,405.739 L231.563,405.813 C231.563,405.79 231.561,405.763 231.561,405.74 Z M165.77,319.473 C165.387,319.255 165.003,319.038 164.62,318.82 C163.976,318.455 163.339,318.526 162.854,319.143 C162.484,319.61 162.115,320.079 161.746,320.547 C161.346,321.057 161.479,322.098 162.05,322.422 C174.25,329.337 186.001,338.782 196.316,349.915 C184.453,368.725 177.996,390.231 177.481,412.865 C177.479,413.009 177.499,413.139 177.528,413.263 C177.585,413.822 177.939,414.312 178.635,414.32 C179.198,414.326 179.762,414.332 180.325,414.337 C180.978,414.344 181.68,413.885 181.697,413.114 C182.2,391.58 188.175,371.223 199.309,353.247 C212.839,368.711 223.581,387.099 229.088,406.366 C229.27,407.004 229.85,407.667 230.564,407.444 C231.105,407.276 231.646,407.107 232.187,406.939 C232.786,406.752 233.418,406.124 233.203,405.372 C222.931,369.448 195.907,337.856 165.77,319.473 L165.77,319.473 Z" id="Fill-66"></path>
                <path d="M171.675,291.69 C171.668,292.378 172.101,293.133 172.828,293.146 C173.45,293.157 174.072,293.168 174.694,293.18 C175.339,293.191 176.059,292.724 176.066,291.955 C176.653,228.716 145.868,169.178 104.876,125.081 C104.792,124.991 104.703,124.922 104.612,124.862 C104.198,124.479 103.6,124.379 103.09,124.918 C102.649,125.384 102.209,125.85 101.769,126.314 C101.313,126.796 101.101,127.657 101.614,128.21 C123.161,151.392 141.925,178.931 154.599,209.058 C131.172,198.472 106.275,192.708 80.97,190.233 C54.341,187.956 27.659,189.393 1.485,195.171 C0.83,195.315 0.322,196.014 0.469,196.738 C0.588,197.322 0.707,197.906 0.825,198.489 C0.967,199.188 1.614,199.72 2.303,199.567 C20.186,195.611 38.668,193.534 57.188,193.475 C48.284,219.472 30.994,240.812 8.01,253.995 C7.427,254.33 7.075,255.115 7.408,255.787 C7.67,256.315 7.932,256.845 8.193,257.374 C8.499,257.991 9.259,258.37 9.882,258.013 C34.228,244.049 52.531,221.305 61.646,193.573 C61.654,193.55 61.657,193.524 61.663,193.5 C93.207,193.956 124.732,200.322 153.476,213.415 C154.132,213.714 154.842,213.26 155.105,212.622 C155.268,212.231 155.429,211.84 155.59,211.449 C165.92,236.762 171.93,263.853 171.675,291.69" id="Fill-67"></path>
                <path d="M139.776,320.854 C139.649,320.831 139.517,320.82 139.371,320.839 C138.812,320.914 138.253,320.988 137.694,321.062 C136.982,321.156 136.604,321.942 136.678,322.628 C139.618,349.906 135.628,377.124 125.103,402.199 C124.809,402.898 125.26,403.64 125.85,403.927 C126.362,404.177 126.874,404.426 127.386,404.676 C128.036,404.994 128.754,404.505 129.016,403.882 C139.856,378.057 143.876,350 140.848,321.917 C140.771,321.203 140.293,320.875 139.776,320.854" id="Fill-68"></path>
                <path d="M21.859,123.505 C82.818,127.488 148.757,126.613 199.646,85.766 C200.208,85.314 200.2,84.423 199.8,83.871 C199.42,83.349 199.041,82.827 198.662,82.305 C198.268,81.763 197.729,81.709 197.28,81.922 C197.145,81.968 197.008,82.035 196.875,82.141 C169.295,104.266 137.147,114.337 103.825,118.267 C95.733,91.913 80.313,71.597 57.557,57.704 C57.456,57.642 57.354,57.6 57.253,57.568 C56.758,57.294 56.148,57.351 55.79,58.026 C55.515,58.547 55.238,59.067 54.962,59.588 C54.651,60.175 54.626,61.071 55.267,61.463 C76.85,74.651 91.733,93.792 99.548,118.738 C73.859,121.364 47.563,120.509 22.194,118.851 C21.522,118.807 20.865,119.332 20.822,120.074 C20.783,120.732 20.744,121.391 20.706,122.05 C20.664,122.762 21.161,123.459 21.859,123.505" id="Fill-69"></path>
                <path d="M193.344,74.729 C208.392,89.438 225.895,100.708 245.841,105.938 C265.427,111.074 285.907,111.814 305.981,110.78 C324.608,109.82 343.182,107.239 361.457,103.307 C362.234,103.139 362.754,102.195 362.371,101.407 C362.104,100.855 361.836,100.304 361.568,99.752 C361.509,99.628 361.436,99.527 361.357,99.438 C361.11,99.1 360.714,98.894 360.192,99.005 C341.028,103.104 321.518,105.768 301.975,106.515 C276.969,107.47 250.035,105.898 227.112,94.261 C213.69,87.446 200.783,77.33 189.599,65.19 C189.612,65.171 189.63,65.156 189.643,65.136 C201.533,46.309 208.004,24.778 208.52,2.118 C208.522,1.974 208.502,1.844 208.472,1.72 C208.416,1.161 208.061,0.671 207.365,0.663 C206.802,0.657 206.238,0.651 205.675,0.646 C205.022,0.639 204.321,1.098 204.304,1.869 C203.799,23.454 197.798,43.856 186.613,61.864 C173.061,46.275 162.369,27.708 156.913,8.617 C156.73,7.979 156.151,7.315 155.436,7.539 C154.896,7.707 154.354,7.876 153.814,8.044 C153.215,8.23 152.583,8.858 152.798,9.611 C159.85,34.271 175.705,57.489 193.344,74.729" id="Fill-70"></path>
                <path d="M144.261,309.98 C144.23,309.462 143.878,308.978 143.426,308.776 C118.102,297.503 90.119,294.033 62.975,291.408 C47.145,290.051 31.515,290.089 15.954,293.794 C15.313,293.946 14.771,294.631 14.938,295.361 C15.07,295.942 15.202,296.524 15.334,297.105 C15.49,297.791 16.112,298.351 16.812,298.184 C37.87,293.163 59.203,295.144 80.411,297.931 C99.969,300.5 119.474,303.755 137.911,311.261 C115.144,326.818 94.592,346.3 81.473,371.769 C81.178,372.342 81.12,373.272 81.777,373.643 C82.274,373.924 82.771,374.206 83.269,374.487 C83.817,374.796 84.677,374.862 85.036,374.165 C98.624,347.794 120.311,327.938 144.168,312.343 C145.001,311.799 145.131,310.513 144.261,309.98" id="Fill-71"></path>
                <path d="M230.172,211.822 C208.493,226.594 203.475,253.338 201.348,278.802 C201.06,282.25 206.11,282.718 206.398,279.265 C208.335,256.091 212.389,230.281 232.345,216.684 C235.052,214.839 232.918,209.951 230.172,211.822" id="Fill-72"></path>
                <path d="M290.397,111.021 C297.464,128.037 313.758,134.6 329.654,139.016 C331.808,139.613 333.036,136.15 330.867,135.548 C315.866,131.381 300.264,125.611 293.548,109.437 C292.644,107.259 289.492,108.84 290.397,111.021" id="Fill-73"></path>
            </g>
        </g>
    </g>
</svg>